<?xml version="1.0" standalone="no"?><!DOCTYPE svg PUBLIC "-//W3C//DTD SVG 1.1//EN" "http://www.w3.org/Graphics/SVG/1.1/DTD/svg11.dtd"><svg t="1532800293133" class="icon" style="" viewBox="0 0 1024 1024" version="1.1" xmlns="http://www.w3.org/2000/svg" p-id="518" xmlns:xlink="http://www.w3.org/1999/xlink" width="200" height="200"><defs><style type="text/css"></style></defs><path d="M155.486101 125.185892C162.208304 126.67733 169.982636 128.334227 178.722354 130.114996 203.612898 135.18659 231.315703 140.252265 261.139943 144.978715 346.494611 158.505449 431.91344 166.62759 512 166.62759 592.08656 166.62759 677.505389 158.505449 762.860057 144.978715 792.684297 140.252265 820.387102 135.18659 845.277646 130.114996 854.017364 128.334227 861.791696 126.67733 868.513899 125.185892 872.596771 124.280035 875.452702 123.623037 876.994786 123.25646 893.028777 119.444937 902.937045 103.356969 899.125522 87.322978 895.313999 71.288987 879.226031 61.380719 863.19204 65.192242 861.936519 65.490699 859.372091 66.080637 855.586699 66.920493 849.195131 68.338574 841.757485 69.923715 833.361875 71.63437 809.294335 76.538272 782.443847 81.448094 753.518387 86.032108 671.016767 99.1067 588.579309 106.945355 512 106.945355 435.420691 106.945355 352.983233 99.1067 270.481613 86.032108 241.556153 81.448094 214.705665 76.538272 190.638125 71.63437 182.242515 69.923715 174.804869 68.338574 168.413301 66.920493 164.627909 66.080637 162.063481 65.490699 160.80796 65.192242 144.773969 61.380719 128.686001 71.288987 124.874478 87.322978 121.062955 103.356969 130.971223 119.444937 147.005214 123.25646 148.547298 123.623037 151.403229 124.280035 155.486101 125.185892Z" p-id="519" fill="#1296db"></path><path d="M155.486101 244.550363C162.208304 246.041801 169.982636 247.698698 178.722354 249.479466 203.612898 254.551061 231.315703 259.616736 261.139943 264.343186 346.494611 277.86992 431.91344 285.992061 512 285.992061 592.08656 285.992061 677.505389 277.86992 762.860057 264.343186 792.684297 259.616736 820.387102 254.551061 845.277646 249.479466 854.017364 247.698698 861.791696 246.041801 868.513899 244.550363 872.596771 243.644507 875.452702 242.987509 876.994786 242.620931 893.028777 238.809408 902.937045 222.72144 899.125522 206.68745 895.313999 190.653458 879.226031 180.74519 863.19204 184.556714 861.936519 184.85517 859.372091 185.445108 855.586699 186.284964 849.195131 187.703046 841.757485 189.288185 833.361875 190.998841 809.294335 195.902743 782.443847 200.812565 753.518387 205.396579 671.016767 218.471172 588.579309 226.309825 512 226.309825 435.420691 226.309825 352.983233 218.471172 270.481613 205.396579 241.556153 200.812565 214.705665 195.902743 190.638125 190.998841 182.242515 189.288185 174.804869 187.703046 168.413301 186.284964 164.627909 185.445108 162.063481 184.85517 160.80796 184.556714 144.773969 180.74519 128.686001 190.653458 124.874478 206.68745 121.062955 222.72144 130.971223 238.809408 147.005214 242.620931 148.547298 242.987509 151.403229 243.644507 155.486101 244.550363Z" p-id="520" fill="#1296db"></path><path d="M929.775649 437.397206C946.256443 437.397206 959.616766 424.036882 959.616766 407.556088 959.616766 391.075293 946.256443 377.71497 929.775649 377.71497L94.224351 377.71497C77.743557 377.71497 64.383234 391.075293 64.383234 407.556088 64.383234 424.036882 77.743557 437.397206 94.224351 437.397206L929.775649 437.397206Z" p-id="521" fill="#1296db"></path><path d="M318.032735 556.761677C334.513529 556.761677 347.873852 543.401353 347.873852 526.920559 347.873852 510.439764 334.513529 497.079441 318.032735 497.079441L198.668263 497.079441C182.187469 497.079441 168.827146 510.439764 168.827146 526.920559 168.827146 543.401353 182.187469 556.761677 198.668263 556.761677L318.032735 556.761677Z" p-id="522" fill="#1296db"></path><path d="M855.172854 556.761677C871.653649 556.761677 885.013972 543.401353 885.013972 526.920559 885.013972 510.439764 871.653649 497.079441 855.172854 497.079441L735.808383 497.079441C719.327589 497.079441 705.967265 510.439764 705.967265 526.920559 705.967265 543.401353 719.327589 556.761677 735.808383 556.761677L855.172854 556.761677Z" p-id="523" fill="#1296db"></path><path d="M288.191617 246.17613C288.191617 229.695336 274.831294 216.335013 258.350499 216.335013 241.869704 216.335013 228.509381 229.695336 228.509381 246.17613L228.509381 929.775649C228.509381 946.256443 241.869704 959.616766 258.350499 959.616766 274.831294 959.616766 288.191617 946.256443 288.191617 929.775649L288.191617 246.17613Z" p-id="524" fill="#1296db"></path><path d="M556.761677 259.015713C556.761677 242.534919 543.401353 229.174595 526.920559 229.174595 510.439764 229.174595 497.079441 242.534919 497.079441 259.015713L497.079441 407.556094C497.079441 424.036889 510.439764 437.397212 526.920559 437.397212 543.401353 437.397212 556.761677 424.036889 556.761677 407.556094L556.761677 259.015713Z" p-id="525" fill="#1296db"></path><path d="M228.509381 362.794411C228.509381 346.313617 215.149058 332.953293 198.668263 332.953293 182.187469 332.953293 168.827146 346.313617 168.827146 362.794411L168.827146 406.89088C168.827146 423.371674 182.187469 436.731998 198.668263 436.731998 215.149058 436.731998 228.509381 423.371674 228.509381 406.89088L228.509381 362.794411Z" p-id="526" fill="#1296db"></path><path d="M347.873852 362.794411C347.873852 346.313617 334.513529 332.953293 318.032735 332.953293 301.55194 332.953293 288.191617 346.313617 288.191617 362.794411L288.191617 406.89088C288.191617 423.371674 301.55194 436.731998 318.032735 436.731998 334.513529 436.731998 347.873852 423.371674 347.873852 406.89088L347.873852 362.794411Z" p-id="527" fill="#1296db"></path><path d="M765.649501 362.794411C765.649501 346.313617 752.289178 332.953293 735.808383 332.953293 719.327589 332.953293 705.967265 346.313617 705.967265 362.794411L705.967265 406.89088C705.967265 423.371674 719.327589 436.731998 735.808383 436.731998 752.289178 436.731998 765.649501 423.371674 765.649501 406.89088L765.649501 362.794411Z" p-id="528" fill="#1296db"></path><path d="M885.013972 362.794411C885.013972 346.313617 871.653649 332.953293 855.172854 332.953293 838.69206 332.953293 825.331737 346.313617 825.331737 362.794411L825.331737 406.89088C825.331737 423.371674 838.69206 436.731998 855.172854 436.731998 871.653649 436.731998 885.013972 423.371674 885.013972 406.89088L885.013972 362.794411Z" p-id="529" fill="#1296db"></path><path d="M825.331737 239.465818C825.331737 222.985024 811.971412 209.624701 795.490619 209.624701 779.009824 209.624701 765.649501 222.985024 765.649501 239.465818L765.649501 929.775649C765.649501 946.256443 779.009824 959.616766 795.490619 959.616766 811.971413 959.616766 825.331737 946.256443 825.331737 929.775649L825.331737 239.465818Z" p-id="530" fill="#1296db"></path></svg>